<svg width="52" height="52" viewBox="0 0 52 52" fill="none" xmlns="http://www.w3.org/2000/svg">
<g id="&#227;&#130;&#185;&#227;&#131;&#136;&#227;&#131;&#131;&#227;&#131;&#149;&#227;&#130;&#154;&#231;&#166;&#129;&#230;&#173;&#162;&#227;&#129;&#174;&#230;&#137;&#139;&#227;&#129;&#174;&#227;&#129;&#178;&#227;&#130;&#137;&#227;&#130;&#162;&#227;&#130;&#164;&#227;&#130;&#179;&#227;&#131;&#179; 1">
<g id="Group">
<path id="Vector" d="M43.2819 5.55486C41.876 5.55486 40.7359 6.6949 40.7359 8.10083V24.0711H38.6267V3.16347C38.6267 1.75754 37.4865 0.6175 36.0807 0.6175C34.6748 0.6175 33.5347 1.75754 33.5347 3.16347V24.071H31.4264V2.54597C31.4263 1.14004 30.2861 0 28.8803 0C27.4744 0 26.3343 1.14004 26.3343 2.54597V24.0711H23.9177V7.48424C23.9177 6.07831 22.7775 4.93827 21.3717 4.93827C19.9658 4.93827 18.8257 6.07831 18.8257 7.48424V26.617V30.0119C18.8366 30.1077 18.7425 30.4043 18.5617 30.5878C18.4758 30.6818 18.3818 30.7478 18.3004 30.7858C18.2163 30.8229 18.1494 30.8401 18.0555 30.841C17.9713 30.8401 17.8601 30.8274 17.682 30.7569C17.419 30.6511 16.9977 30.3961 16.4723 29.8165C15.9489 29.2397 15.3359 28.3447 14.7156 27.0554C13.2726 24.0665 12.2935 22.477 11.535 21.496C11.1506 21.0051 10.8216 20.6588 10.4383 20.3668C10.2457 20.2213 10.0359 20.0902 9.78727 19.9808C9.54047 19.8723 9.25021 19.7864 8.9311 19.7602C8.14358 19.6942 7.3779 19.9926 6.84257 20.5758C6.30825 21.158 6.07587 21.9464 6.20882 22.7256C6.24762 22.9427 6.40219 23.7293 7.14543 25.8521C7.88856 27.9722 9.22401 31.4214 11.6352 36.9004C13.5031 41.1353 16.3374 44.8231 19.6311 47.5264C21.2803 48.8772 23.0487 49.981 24.8967 50.7623C26.7429 51.5414 28.6759 51.9991 30.6297 51.9999C33.3692 52.0044 35.7958 51.2983 37.7858 50.1447C39.2803 49.2812 40.5306 48.18 41.5568 46.9794C43.0956 45.1748 44.1417 43.1513 44.8225 41.222C45.5005 39.2836 45.8233 37.4554 45.8277 35.875C45.8277 35.6254 45.8277 35.423 45.8277 35.2575C45.8277 34.809 45.8277 34.6418 45.8277 34.64V8.10083C45.8278 6.6949 44.6878 5.55486 43.2819 5.55486Z" fill="white"/>
</g>
</g>
</svg>
