<svg width="36" height="37" viewBox="0 0 36 37" fill="none" xmlns="http://www.w3.org/2000/svg">
<path d="M4.5 35.375V2.75C4.5 1.55469 3.44531 0.5 2.25 0.5C0.984375 0.5 0 1.55469 0 2.75V35.375C0 36.0078 0.492188 36.5 1.125 36.5H3.375C3.9375 36.5 4.5 36.0078 4.5 35.375ZM33.4688 0.5C34.8047 0.5 36 1.34375 36 2.67969V23.9141C36 24.7578 35.4375 25.5312 34.4531 25.8828C31.4297 27.0781 28.8984 27.5 26.6484 27.5C21.4453 27.5 17.8594 25.3203 12.6562 25.3203C10.8984 25.3203 9 25.6016 6.75 26.3047V1.625C9.21094 0.851562 11.25 0.570312 13.0078 0.570312C17.8594 0.570312 20.3203 2.82031 24.5391 2.82031C26.5078 2.82031 28.8984 2.32812 32.0625 0.851562C32.5547 0.640625 32.9766 0.5 33.4688 0.5Z" fill="#CBDCDC"/>
</svg>
