<svg width="33" height="33" viewBox="0 0 33 33" fill="none" xmlns="http://www.w3.org/2000/svg">
<g id="&#232;&#168;&#188;&#230;&#152;&#142;&#230;&#155;&#184;&#227;&#130;&#162;&#227;&#130;&#164;&#227;&#130;&#179;&#227;&#131;&#179; 1" clip-path="url(#clip0_344_26)">
<g id="Group">
<path id="Vector" d="M32.4558 10.0548L31.2589 8.85847C30.5333 8.13234 29.3564 8.13292 28.6308 8.85847L27.5112 9.9786L31.3363 13.8036L32.4558 12.6841C33.1814 11.9579 33.1814 10.781 32.4558 10.0548Z" fill="white"/>
<path id="Vector_2" d="M17.0209 20.4689V24.2939H20.8459L30.293 14.8469L26.4681 11.0219L17.0209 20.4689Z" fill="white"/>
<path id="Vector_3" d="M18.6094 9.17212H7.80598V10.9727H18.6094V9.17212Z" fill="white"/>
<path id="Vector_4" d="M18.6094 15.7742H7.80598V17.5747H18.6094V15.7742Z" fill="white"/>
<path id="Vector_5" d="M14.408 22.3762H7.80598V24.1768H14.408V22.3762Z" fill="white"/>
<path id="Vector_6" d="M24.0145 29.3041C24.0145 29.5801 23.7895 29.8047 23.514 29.8052H2.90129C2.62582 29.8047 2.40191 29.5801 2.40075 29.3041V3.69601C2.40191 3.41989 2.62582 3.19546 2.90129 3.19482H23.514C23.7895 3.1954 24.0145 3.41989 24.0145 3.69601V10.9293L26.4153 8.52851V3.69601C26.4141 2.09293 25.1176 0.795292 23.514 0.794067H2.90129C1.29886 0.795292 0.00122461 2.09293 0 3.69601V29.3041C0.00122461 30.9071 1.29886 32.2048 2.90129 32.2059H23.514C25.1176 32.2048 26.4141 30.9071 26.4153 29.3041V21.2708L24.0145 23.6715V29.3041Z" fill="white"/>
</g>
</g>
<defs>
<clipPath id="clip0_344_26">
<rect width="33" height="33" fill="white"/>
</clipPath>
</defs>
</svg>
